# xmcd
#
# Track frame offsets:
#	150
#	9563
#	22957
#	33067
#	43470
#	54546
#	65318
#	76054
#	88931
#	99314
#	108109
#	120161
#	131955
#	142205
#	148415
#	161606
#	172228
#	184979
#	197022
#	210230
#	221692
#	231895
#	243312
#	252666
#	265500
#
# Disc length: 3664 seconds
# Revision: 0
# Processed by: cddbd v1.5.2PL0 Copyright (c) Steve Scherf et al.
# Submitted via: dBpowerAMP V12.0
#
DISCID=680e4e19
DTITLE=Various Artist - 75 Pumpin' Piano Greats
DYEAR=2009
DGENRE=Rhythm and Blues
TTITLE0=Jerry Lee Lewis - Pumpin' Piano Rock
TTITLE1=Amos Milburn - Down The Road Apiece
TTITLE2=Merrill E. Moore - Rock-Rockola
TTITLE3=Chuck Miller - Boogie Blues
TTITLE4=Little Willie Littlefield - Jim Wilson's Boogie
TTITLE5=Piano Red - Woo-ee
TTITLE6=Champion Jack Dupree - Shake Baby Shake
TTITLE7=Carl Perkins featuring Jerry Lee Lewis - Put Your Cat Clothes On
TTITLE8=Don Woody - Barking Up The Wrong Tree
TTITLE9=Janis Martin featuring Floyd Cramer - Will You, Willyum
TTITLE10=Little Richard - Slippin' And Slidin'
TTITLE11=Fats Domino - The Fat Man
TTITLE12=Moon Mullican - I Done It
TTITLE13=Chuck Miller - Chuck's Boogie
TTITLE14=Professor Longhair and His Blues Scholars - Walk Your Blues Away
TTITLE15=Cecil Gant - Cecil's Boogie
TTITLE16=Big Joe Turner with Pete Johnson - Roll 'Em Pete
TTITLE17=Ray Charles - Mess Around
TTITLE18=Lloyd Glenn - Honky Tonk Train
TTITLE19=Chuck Berry featuring Johnnie Johnson - Rock And Roll Music
TTITLE20=Don Cole featuring Al Casey - Snake-Eyed Mama
TTITLE21=Roy Hall - She Sure Can Rock Me
TTITLE22=Moon Mullican - Seven Nights To Rock
TTITLE23=Ella Mae Morse with Freddie Slack - House Of Blue Lights
TTITLE24=Camille Howard - X-Temporaneous Boogie
EXTD=
EXTT0=
EXTT1=
EXTT2=
EXTT3=
EXTT4=
EXTT5=
EXTT6=
EXTT7=
EXTT8=
EXTT9=
EXTT10=
EXTT11=
EXTT12=
EXTT13=
EXTT14=
EXTT15=
EXTT16=
EXTT17=
EXTT18=
EXTT19=
EXTT20=
EXTT21=
EXTT22=
EXTT23=
EXTT24=
PLAYORDER=
